<svg width="30" height="42" viewBox="0 0 30 42" fill="none" xmlns="http://www.w3.org/2000/svg">
<path fill-rule="evenodd" clip-rule="evenodd" d="M27 42C25.3431 42 24 40.1196 24 37.8C24 35.4804 25.3431 33.6 27 33.6C28.6569 33.6 30 35.4804 30 37.8C30 40.1196 28.6569 42 27 42ZM27 25.2C25.3431 25.2 24 23.3196 24 21C24 18.6804 25.3431 16.8 27 16.8C28.6569 16.8 30 18.6804 30 21C30 23.3196 28.6569 25.2 27 25.2ZM27 8.4C25.3431 8.4 24 6.5196 24 4.2C24 1.8804 25.3431 0 27 0C28.6569 0 30 1.8804 30 4.2C30 6.5196 28.6569 8.4 27 8.4ZM15 42C13.3431 42 12 40.1196 12 37.8C12 35.4804 13.3431 33.6 15 33.6C16.6569 33.6 18 35.4804 18 37.8C18 40.1196 16.6569 42 15 42ZM15 25.2C13.3431 25.2 12 23.3196 12 21C12 18.6804 13.3431 16.8 15 16.8C16.6569 16.8 18 18.6804 18 21C18 23.3196 16.6569 25.2 15 25.2ZM15 8.4C13.3431 8.4 12 6.5196 12 4.2C12 1.8804 13.3431 0 15 0C16.6569 0 18 1.8804 18 4.2C18 6.5196 16.6569 8.4 15 8.4ZM3 42C1.34315 42 0 40.1196 0 37.8C0 35.4804 1.34315 33.6 3 33.6C4.65685 33.6 6 35.4804 6 37.8C6 40.1196 4.65685 42 3 42ZM3 25.2C1.34315 25.2 0 23.3196 0 21C0 18.6804 1.34315 16.8 3 16.8C4.65685 16.8 6 18.6804 6 21C6 23.3196 4.65685 25.2 3 25.2ZM3 8.4C1.34315 8.4 0 6.5196 0 4.2C0 1.8804 1.34315 0 3 0C4.65685 0 6 1.8804 6 4.2C6 6.5196 4.65685 8.4 3 8.4Z" fill="#373867"/>
</svg>
